<svg width="14" height="14" viewBox="0 0 14 14" fill="none" xmlns="http://www.w3.org/2000/svg">
<path d="M12.4136 10.9294C12.1189 10.2312 11.6911 9.59702 11.1543 9.06217C10.619 8.52578 9.98493 8.09812 9.28707 7.8028C9.28082 7.79967 9.27457 7.79811 9.26832 7.79498C10.2418 7.09186 10.8746 5.94655 10.8746 4.65436C10.8746 2.51373 9.14019 0.779358 6.99957 0.779358C4.85894 0.779358 3.12457 2.51373 3.12457 4.65436C3.12457 5.94655 3.75738 7.09186 4.73082 7.79655C4.72457 7.79967 4.71832 7.80123 4.71207 7.80436C4.01207 8.09967 3.38394 8.52311 2.84488 9.06373C2.30849 9.599 1.88082 10.2331 1.5855 10.9309C1.29538 11.6141 1.13891 12.3466 1.12457 13.0887C1.12415 13.1054 1.12707 13.122 1.13317 13.1375C1.13926 13.1531 1.14841 13.1672 1.16005 13.1792C1.1717 13.1911 1.18562 13.2006 1.201 13.2071C1.21637 13.2135 1.23288 13.2169 1.24957 13.2169H2.18707C2.25582 13.2169 2.3105 13.1622 2.31207 13.095C2.34332 11.8887 2.82769 10.759 3.68394 9.9028C4.56988 9.01686 5.74644 8.52936 6.99957 8.52936C8.25269 8.52936 9.42925 9.01686 10.3152 9.9028C11.1714 10.759 11.6558 11.8887 11.6871 13.095C11.6886 13.1637 11.7433 13.2169 11.8121 13.2169H12.7496C12.7662 13.2169 12.7828 13.2135 12.7981 13.2071C12.8135 13.2006 12.8274 13.1911 12.8391 13.1792C12.8507 13.1672 12.8599 13.1531 12.866 13.1375C12.8721 13.122 12.875 13.1054 12.8746 13.0887C12.8589 12.3419 12.7043 11.6153 12.4136 10.9294ZM6.99957 7.34186C6.28238 7.34186 5.60738 7.06217 5.09957 6.55436C4.59175 6.04655 4.31207 5.37155 4.31207 4.65436C4.31207 3.93717 4.59175 3.26217 5.09957 2.75436C5.60738 2.24655 6.28238 1.96686 6.99957 1.96686C7.71675 1.96686 8.39175 2.24655 8.89957 2.75436C9.40738 3.26217 9.68707 3.93717 9.68707 4.65436C9.68707 5.37155 9.40738 6.04655 8.89957 6.55436C8.39175 7.06217 7.71675 7.34186 6.99957 7.34186Z" fill="black" fill-opacity="0.85"/>
</svg>
