<svg width="12" height="14" viewBox="0 0 12 14" fill="none" xmlns="http://www.w3.org/2000/svg">
<path d="M11 6.25189H9.9375V2.75189C9.9375 1.6472 9.04219 0.751892 7.9375 0.751892H4.0625C2.95781 0.751892 2.0625 1.6472 2.0625 2.75189V6.25189H1C0.723438 6.25189 0.5 6.47533 0.5 6.75189V12.7519C0.5 13.0285 0.723438 13.2519 1 13.2519H11C11.2766 13.2519 11.5 13.0285 11.5 12.7519V6.75189C11.5 6.47533 11.2766 6.25189 11 6.25189ZM3.1875 2.75189C3.1875 2.26908 3.57969 1.87689 4.0625 1.87689H7.9375C8.42031 1.87689 8.8125 2.26908 8.8125 2.75189V6.25189H3.1875V2.75189ZM10.375 12.1269H1.625V7.37689H10.375V12.1269ZM5.5625 9.95502V10.7831C5.5625 10.8519 5.61875 10.9081 5.6875 10.9081H6.3125C6.38125 10.9081 6.4375 10.8519 6.4375 10.7831V9.95502C6.56648 9.86242 6.66275 9.73128 6.71245 9.58048C6.76216 9.42968 6.76273 9.267 6.71409 9.11585C6.66545 8.96471 6.57011 8.83289 6.44179 8.73938C6.31346 8.64588 6.15878 8.5955 6 8.5955C5.84122 8.5955 5.68654 8.64588 5.55821 8.73938C5.42989 8.83289 5.33455 8.96471 5.28591 9.11585C5.23727 9.267 5.23784 9.42968 5.28755 9.58048C5.33725 9.73128 5.43352 9.86242 5.5625 9.95502Z" fill="black" fill-opacity="0.85"/>
</svg>
