<svg width="110" height="60" viewBox="0 0 110 60" fill="none" xmlns="http://www.w3.org/2000/svg">
<g clip-path="url(#clip0_5510_3643)">
<path d="M0 26.4849C0 26.4849 1.78696 29.3993 2.96124 32.5437C4.23764 35.9182 7.73497 41.7214 13.9638 44.559C19.6821 47.1666 25.4003 49.3652 27.3149 52.9442C28.9742 56.0631 28.285 60 28.285 60C28.285 60 35.1775 55.4751 36.5816 49.9276C37.9856 44.3801 34.8967 39.4461 32.1652 36.5062C29.4593 33.5663 26.5746 30.4474 26.5236 28.3C23.5368 30.2685 24.0984 32.2625 25.7832 34.4099C27.4681 36.5573 30.1741 41.5424 24.2516 41.8236C18.7631 42.0793 14.9083 40.4431 9.72615 36.2761C4.51845 32.0835 3.93131 24.4397 0 26.4849Z" fill="#0079C2"/>
<path d="M7.22444 3.55347C7.22444 3.55347 8.80717 6.31444 7.22444 14.6485C5.6417 22.9825 5.25878 28.5812 10.2112 33.1061C7.3776 27.0984 10.2623 23.775 10.7728 16.0801C11.2834 8.38517 9.24115 5.31742 7.22444 3.55347Z" fill="#FBB600"/>
<path d="M18.0483 9.84235C18.0483 9.84235 19.631 12.6033 18.0483 20.9374C16.4656 29.2458 16.0826 34.87 21.0351 39.395C18.2015 33.3873 21.0861 30.0639 21.5967 22.369C22.1328 14.6485 20.0905 11.5807 18.0483 9.84235Z" fill="#FBB600"/>
<path d="M12.6874 0C12.6874 0 14.2701 3.57904 12.6874 14.3161C11.1047 25.0533 10.7217 32.288 15.6742 38.1423C12.8406 30.3962 15.7252 26.0758 16.2358 16.1568C16.7463 6.23775 14.7296 2.27524 12.6874 0Z" fill="#FBB600"/>
<path d="M41.6616 23.2637V13.268H45.644V14.6229H43.0912V23.2637H41.6616Z" fill="#0079C2"/>
<path d="M48.3755 15.62C48.3755 15.2109 48.4521 14.853 48.5797 14.5463C48.7329 14.2395 48.9116 13.9838 49.1413 13.7793C49.3711 13.5748 49.6264 13.4214 49.9072 13.3192C50.188 13.2169 50.4688 13.1658 50.7751 13.1658C51.0815 13.1658 51.3623 13.2169 51.6431 13.3192C51.9239 13.4214 52.1792 13.5748 52.4344 13.7793C52.6642 13.9838 52.8429 14.2395 52.9705 14.5463C53.1237 14.853 53.1747 15.2109 53.1747 15.62V20.9118C53.1747 21.3464 53.0982 21.7043 52.9705 21.9855C52.8429 22.2923 52.6387 22.5224 52.4344 22.7269C52.2047 22.9314 51.9494 23.0848 51.6431 23.1871C51.3623 23.2893 51.0815 23.3405 50.7751 23.3405C50.4688 23.3405 50.188 23.2893 49.9072 23.1871C49.6264 23.0848 49.3711 22.9314 49.1413 22.7269C48.9116 22.5224 48.7329 22.2923 48.5797 21.9855C48.4521 21.6788 48.3755 21.3209 48.3755 20.9118V15.62ZM49.8051 20.9118C49.8051 21.2697 49.9072 21.5254 50.0859 21.6788C50.2901 21.8322 50.4943 21.9344 50.7751 21.9344C51.0559 21.9344 51.2601 21.8577 51.4644 21.6788C51.6686 21.5254 51.7452 21.2697 51.7452 20.9118V15.62C51.7452 15.2621 51.6431 15.0064 51.4644 14.853C51.2601 14.6996 51.0559 14.5974 50.7751 14.5974C50.4943 14.5974 50.2901 14.6741 50.0859 14.853C49.8816 15.0064 49.8051 15.2621 49.8051 15.62V20.9118Z" fill="#0079C2"/>
<path d="M56.6976 23.2637V13.268H58.8419C59.2248 13.268 59.5822 13.3191 59.8886 13.4214C60.1949 13.5237 60.4502 13.7026 60.7055 13.9582C60.9607 14.2139 61.1139 14.5207 61.216 14.8786C61.3181 15.2365 61.3437 15.6966 61.3437 16.3102C61.3437 16.7703 61.3181 17.1283 61.2671 17.4606C61.216 17.7674 61.1139 18.0486 60.9352 18.3298C60.731 18.6621 60.4757 18.9178 60.1438 19.0967C59.812 19.2757 59.378 19.3779 58.8419 19.3779H58.1016V23.2637H56.6976ZM58.1271 14.5974V17.9974H58.8164C59.0972 17.9974 59.3269 17.9463 59.4801 17.8696C59.6333 17.7929 59.7609 17.6651 59.8375 17.5117C59.9141 17.3583 59.9651 17.2049 59.9651 17.0004C59.9907 16.7959 59.9907 16.5658 59.9907 16.3102C59.9907 16.0801 59.9907 15.85 59.9651 15.6455C59.9651 15.441 59.9141 15.262 59.8375 15.0831C59.7609 14.9297 59.6588 14.8019 59.5056 14.7252C59.3525 14.6485 59.1483 14.5974 58.8674 14.5974H58.1271Z" fill="#0079C2"/>
<path d="M64.5858 15.62C64.5858 15.2109 64.6623 14.853 64.79 14.5463C64.9431 14.2395 65.1218 13.9838 65.3516 13.7793C65.5813 13.5748 65.8366 13.4214 66.1174 13.3192C66.3982 13.2169 66.679 13.1658 66.9854 13.1658C67.2917 13.1658 67.5725 13.2169 67.8533 13.3192C68.1341 13.4214 68.3894 13.5748 68.6447 13.7793C68.8745 13.9838 69.0531 14.2395 69.1808 14.5463C69.334 14.853 69.385 15.2109 69.385 15.62V20.9118C69.385 21.3464 69.3084 21.7043 69.1808 21.9855C69.0531 22.2923 68.8489 22.5224 68.6447 22.7269C68.4149 22.9314 68.1597 23.0848 67.8533 23.1871C67.5725 23.2893 67.2917 23.3405 66.9854 23.3405C66.679 23.3405 66.3982 23.2893 66.1174 23.1871C65.8366 23.0848 65.5813 22.9314 65.3516 22.7269C65.1218 22.5224 64.9431 22.2923 64.79 21.9855C64.6623 21.6788 64.5858 21.3209 64.5858 20.9118V15.62ZM66.0153 20.9118C66.0153 21.2697 66.1174 21.5254 66.2961 21.6788C66.5004 21.8322 66.7046 21.9344 66.9854 21.9344C67.2662 21.9344 67.4704 21.8577 67.6746 21.6788C67.8789 21.5254 67.9554 21.2697 67.9554 20.9118V15.62C67.9554 15.2621 67.8533 15.0064 67.6746 14.853C67.4704 14.6996 67.2662 14.5974 66.9854 14.5974C66.7046 14.5974 66.5004 14.6741 66.2961 14.853C66.0919 15.0064 66.0153 15.2621 66.0153 15.62V20.9118Z" fill="#0079C2"/>
<path d="M73.3674 23.2637V24.7976H72.142V21.9855H72.8823C72.9589 21.8066 73.0355 21.602 73.1121 21.372C73.1887 21.1419 73.2397 20.9118 73.3163 20.6562C73.3674 20.4005 73.4184 20.1449 73.4695 19.8637C73.5205 19.608 73.5461 19.3268 73.5716 19.0712C73.5971 18.8666 73.5971 18.6621 73.6226 18.4065C73.6482 18.1508 73.6482 17.9208 73.6482 17.6651C73.6482 17.4095 73.6737 17.1538 73.6737 16.8982C73.6737 16.6425 73.6737 16.3869 73.6737 16.1568V13.268H77.7837V22.0111H78.6006V24.8232H77.3753V23.2893H73.3674V23.2637ZM75.0267 14.5207V16.1568C75.0267 16.2846 75.0267 16.4891 75.0012 16.7192C75.0012 16.9749 74.9756 17.2305 74.9501 17.5373C74.9246 17.8185 74.9246 18.1253 74.899 18.4065C74.8735 18.7133 74.848 18.9689 74.8225 19.199C74.7969 19.3779 74.7714 19.608 74.7204 19.8381C74.6693 20.0682 74.6182 20.3238 74.5672 20.5795C74.5161 20.8351 74.4395 21.0908 74.3885 21.3208C74.3119 21.5765 74.2608 21.781 74.1587 21.9855H76.3286V14.5207H75.0267Z" fill="#0079C2"/>
<path d="M86.1313 20.4261V21.0396C86.1313 21.3464 86.0803 21.6532 85.9526 21.9088C85.825 22.19 85.6718 22.4201 85.4676 22.6502C85.2634 22.8547 85.0081 23.0337 84.7528 23.1615C84.472 23.2893 84.1912 23.3405 83.8593 23.3405C83.5785 23.3405 83.3232 23.3149 83.0424 23.2382C82.7616 23.1615 82.5063 23.0337 82.2766 22.8547C82.0468 22.6758 81.8681 22.4201 81.715 22.1389C81.5618 21.8321 81.4852 21.4742 81.4852 21.0141V15.4666C81.4852 15.1342 81.5363 14.8275 81.6639 14.5462C81.7916 14.265 81.9447 14.0094 82.149 13.8049C82.3532 13.6004 82.6085 13.447 82.8893 13.3191C83.1701 13.1913 83.5019 13.1402 83.8338 13.1402C84.4975 13.1402 85.0591 13.3703 85.4676 13.8049C85.6718 14.0094 85.825 14.265 85.9526 14.5718C86.0803 14.8786 86.1313 15.1854 86.1313 15.5433V16.1057H84.7017V15.62C84.7017 15.3387 84.6252 15.0831 84.472 14.8786C84.3188 14.6741 84.0891 14.5718 83.8338 14.5718C83.4764 14.5718 83.2467 14.6741 83.119 14.9042C82.9914 15.1342 82.9403 15.4154 82.9403 15.7478V20.8607C82.9403 21.1419 82.9914 21.3975 83.119 21.6021C83.2467 21.8066 83.4764 21.9088 83.8083 21.9088C83.9104 21.9088 84.0125 21.8833 84.1146 21.8577C84.2167 21.8321 84.3188 21.781 84.4209 21.7043C84.4975 21.6276 84.5741 21.5254 84.6252 21.3975C84.6762 21.2697 84.7017 21.0908 84.7017 20.9118V20.4261H86.1313Z" fill="#0079C2"/>
<path d="M94.5555 14.5974C94.4279 14.5974 94.3258 14.6229 94.2237 14.6485C94.1471 14.674 94.0705 14.7507 93.9939 14.8274C93.9174 14.9041 93.8663 15.0064 93.8408 15.1342C93.8152 15.262 93.7897 15.3899 93.7642 15.5432L93.6365 16.7192C93.6365 16.847 93.611 16.9493 93.5855 17.0515C93.56 17.1538 93.56 17.2305 93.5344 17.3328C93.5089 17.435 93.4834 17.5117 93.4578 17.5884C93.4068 17.7162 93.3302 17.8441 93.2536 17.9207C93.177 18.023 93.1005 18.0997 93.0239 18.1508L94.5045 23.2382H93.0494L91.773 18.7899H90.9816V23.2637H89.5521V13.268H90.9816V17.5628H91.4667C91.6454 17.5628 91.773 17.5373 91.8751 17.4861C91.9772 17.435 92.0538 17.3839 92.1304 17.2816C92.207 17.2049 92.2325 17.1027 92.258 17.0004C92.2836 16.8982 92.3091 16.7703 92.3346 16.6425L92.4623 15.441C92.4623 15.4154 92.4878 15.3387 92.4878 15.2109C92.5133 15.0831 92.5388 14.9553 92.5644 14.8019C92.5899 14.6485 92.641 14.4951 92.7175 14.3417C92.7941 14.1883 92.8707 14.0349 92.9728 13.8815C93.1515 13.6515 93.3557 13.4981 93.6365 13.3958C93.8918 13.2936 94.1982 13.2424 94.53 13.2424V14.5974H94.5555Z" fill="#0079C2"/>
<path d="M96.9807 23.2637L99.2016 13.2424H100.401L102.622 23.2637H101.193L100.759 21.1163H98.8187L98.3848 23.2637H96.9807ZM100.529 19.7614L99.8143 16.1312H99.7888L99.074 19.7614H100.529Z" fill="#0079C2"/>
<path d="M108.57 23.2637V18.9945H107.907L106.656 23.2637H105.201L106.554 18.8155C106.324 18.7388 106.12 18.611 105.967 18.432C105.788 18.2531 105.66 18.0741 105.558 17.8441C105.456 17.6395 105.379 17.3839 105.354 17.0771C105.328 16.7959 105.303 16.4891 105.303 16.1824C105.303 14.2139 106.145 13.2424 107.83 13.2424H110V23.2637H108.57ZM107.932 14.5974C107.422 14.5974 107.09 14.7252 106.937 15.0064C106.783 15.262 106.707 15.6711 106.707 16.1568C106.707 16.4124 106.732 16.6425 106.758 16.8215C106.783 17.026 106.835 17.1794 106.911 17.3072C106.988 17.435 107.115 17.5373 107.269 17.614C107.422 17.6907 107.626 17.7162 107.881 17.7162H108.57V14.5974H107.932Z" fill="#0079C2"/>
<path d="M84.4975 32.5436H83.9104V35.3046H84.5486C85.0336 35.3046 85.34 35.1768 85.5187 34.9467C85.6718 34.7166 85.7739 34.3587 85.7739 33.8986C85.7739 33.4384 85.6718 33.1061 85.4931 32.876C85.3144 32.6459 84.9826 32.5436 84.4975 32.5436Z" fill="#0079C2"/>
<path d="M94.2748 34.0775L93.56 37.7077H95.0151L94.3003 34.0775H94.2748Z" fill="#0079C2"/>
<path d="M85.5442 36.9407C85.4421 36.8129 85.3145 36.7106 85.1613 36.6595C85.0081 36.6084 84.8039 36.5573 84.5231 36.5573H83.8849V39.7528H84.4976C84.7784 39.7528 85.0081 39.7017 85.1868 39.625C85.34 39.5483 85.4676 39.4205 85.5697 39.2671C85.6463 39.1137 85.6974 38.9348 85.7229 38.7302C85.7484 38.5257 85.7484 38.2956 85.7484 38.0656C85.7484 37.8099 85.7229 37.5798 85.6974 37.4009C85.6974 37.2475 85.6463 37.0941 85.5442 36.9407Z" fill="#0079C2"/>
<path d="M55.2936 34.0775L54.6043 37.7077H56.0339L55.3191 34.0775H55.2936Z" fill="#0079C2"/>
<path d="M74.8735 32.5436C74.6182 32.5436 74.3885 32.6203 74.1843 32.7993C73.98 32.9527 73.9034 33.2083 73.9034 33.5662V38.8581C73.9034 39.216 74.0056 39.4716 74.1843 39.625C74.3885 39.7784 74.5927 39.8807 74.8735 39.8807C75.1543 39.8807 75.3585 39.804 75.5628 39.625C75.767 39.4716 75.8436 39.216 75.8436 38.8581V33.5662C75.8436 33.2083 75.7415 32.9527 75.5628 32.7993C75.3841 32.6459 75.1543 32.5436 74.8735 32.5436Z" fill="#0079C2"/>
<path d="M103.107 32.9527C102.954 33.2083 102.878 33.6173 102.878 34.1031C102.878 34.3587 102.903 34.5888 102.929 34.7678C102.954 34.9723 103.005 35.1257 103.082 35.2535C103.158 35.3813 103.286 35.4836 103.439 35.5603C103.592 35.637 103.797 35.6625 104.052 35.6625H104.741V32.5436H104.129C103.592 32.5436 103.261 32.697 103.107 32.9527Z" fill="#0079C2"/>
<path d="M41.6616 27.9676V44.4567H109.974V27.9676H41.6616ZM49.5242 32.5436H46.9714V41.21H45.5419V31.1887H49.5242V32.5436ZM56.7231 41.21L56.3147 39.0626H54.3745L53.9661 41.21H52.5365L54.7575 31.1887H55.9573L58.1782 41.21H56.7231ZM66.8577 36.4039C66.9854 36.5573 67.0875 36.7618 67.1641 36.9407C67.2151 37.1453 67.2662 37.3753 67.2662 37.6054C67.2662 37.8355 67.2917 38.0912 67.2917 38.3468C67.2917 38.7558 67.2406 39.1649 67.1641 39.5228C67.0875 39.8807 66.9343 40.1874 66.7301 40.4431C66.5259 40.6987 66.2706 40.8777 65.9387 41.0566C65.6324 41.21 65.2495 41.2867 64.79 41.2867C64.4326 41.2867 64.1262 41.2356 63.8199 41.1078C63.5136 40.9799 63.2583 40.8266 63.0541 40.5965C62.8498 40.392 62.6711 40.1108 62.569 39.7784C62.4669 39.4461 62.3903 39.1137 62.3903 38.7558V38.3724H63.8199L63.8454 38.7558C63.8454 38.8837 63.871 39.0115 63.8965 39.1393C63.922 39.2671 63.9731 39.3694 64.0496 39.4716C64.1262 39.5739 64.2283 39.6506 64.356 39.7273C64.4836 39.804 64.6368 39.8295 64.8155 39.8295C65.2239 39.8295 65.5303 39.7017 65.6579 39.4205C65.7856 39.1393 65.8877 38.7814 65.8877 38.3212C65.8877 38.0656 65.8877 37.8099 65.8621 37.5799C65.8366 37.3498 65.7855 37.1708 65.7345 37.043C65.5558 36.7618 65.275 36.6084 64.8921 36.6084H64.356V35.3302H64.9431C65.1218 35.3302 65.275 35.3046 65.4282 35.2279C65.5558 35.1512 65.6834 35.049 65.76 34.8956C65.8366 34.7422 65.8877 34.5632 65.8877 34.3587C65.9132 34.1542 65.9132 33.9753 65.9132 33.8219C65.9132 33.6429 65.8877 33.4895 65.8621 33.3106C65.8366 33.1572 65.7855 33.0038 65.709 32.876C65.6324 32.7737 65.5303 32.6715 65.4026 32.5948C65.275 32.5181 65.1218 32.4925 64.9176 32.4925C64.7389 32.4925 64.5857 32.5181 64.4836 32.5948C64.356 32.6715 64.2794 32.7482 64.2028 32.8504C64.1262 32.9527 64.0496 33.1061 64.0241 33.285C63.9986 33.464 63.9731 33.6429 63.9731 33.7963V34.0264H62.5435V33.7452C62.5435 33.464 62.5946 33.1572 62.7222 32.7993C62.8498 32.4414 63.0285 32.1346 63.2583 31.879C63.4625 31.6744 63.7178 31.4955 63.9986 31.3421C64.2794 31.2143 64.5857 31.1376 64.9431 31.1376C65.3771 31.1376 65.7345 31.2143 66.0408 31.3677C66.3472 31.5211 66.6024 31.7 66.7811 31.9557C66.9854 32.2113 67.1385 32.4925 67.2406 32.8249C67.3428 33.1572 67.3683 33.5151 67.3683 33.8986C67.3683 34.0775 67.3683 34.282 67.3428 34.461C67.3428 34.6655 67.2917 34.8445 67.2406 35.049C67.1896 35.2535 67.0875 35.4324 66.9343 35.5858C66.7811 35.7392 66.6024 35.9182 66.3472 36.046C66.5259 36.1227 66.7301 36.2505 66.8577 36.4039ZM77.2731 38.8581C77.2731 39.2927 77.1965 39.6506 77.0689 39.9318C76.9413 40.2386 76.737 40.4687 76.5328 40.6732C76.3031 40.8777 76.0478 41.0311 75.7415 41.1333C75.4607 41.2356 75.1798 41.2867 74.8735 41.2867C74.5672 41.2867 74.2864 41.2356 74.0056 41.1333C73.7247 41.0311 73.4695 40.8777 73.2397 40.6732C73.01 40.4687 72.8313 40.2386 72.6781 39.9318C72.5505 39.625 72.4739 39.2671 72.4739 38.8581V33.5662C72.4739 33.1572 72.5505 32.7993 72.6781 32.4925C72.8313 32.1857 73.01 31.9301 73.2397 31.7256C73.4695 31.5211 73.7247 31.3677 74.0056 31.2654C74.2864 31.1632 74.5672 31.112 74.8735 31.112C75.1798 31.112 75.4607 31.1632 75.7415 31.2654C76.0223 31.3677 76.2775 31.5211 76.5328 31.7256C76.7626 31.9301 76.9413 32.1857 77.0689 32.4925C77.2221 32.7993 77.2731 33.1572 77.2731 33.5662V38.8581ZM87.1014 34.1031C87.1014 34.3843 87.0759 34.6144 87.0503 34.7933C86.9993 34.9723 86.9482 35.1512 86.8716 35.2791C86.7185 35.5347 86.4632 35.7648 86.1313 35.9437C86.4632 36.0971 86.7185 36.3272 86.8716 36.6595C87.0248 36.9663 87.1014 37.4009 87.1014 37.9122V38.4746C87.1014 39.3438 86.8972 40.0341 86.4632 40.4942C86.0292 40.9544 85.3655 41.21 84.421 41.21H82.4808V31.1887H84.5741C85.0336 31.1887 85.4166 31.2654 85.7484 31.3932C86.0803 31.5211 86.3356 31.7256 86.5398 31.9557C86.744 32.1857 86.8972 32.467 86.9738 32.7737C87.0504 33.0805 87.1014 33.3873 87.1014 33.7196V34.1031ZM95.7043 41.21L95.2704 39.0626H93.3302L92.8962 41.21H91.4667L93.6876 31.1887H94.8874L97.1084 41.21H95.7043ZM106.145 41.21H104.716V36.9407H104.052L102.801 41.21H101.346L102.699 36.7618C102.469 36.6851 102.265 36.5573 102.112 36.3783C101.933 36.1994 101.806 36.0204 101.703 35.7903C101.601 35.5858 101.525 35.3302 101.499 35.0234C101.474 34.7422 101.448 34.4354 101.448 34.1286C101.448 32.1602 102.291 31.1887 103.975 31.1887H106.145V41.21Z" fill="#0079C2"/>
<path d="M52.1537 54.836V55.4495C52.1537 55.7563 52.1026 56.0631 51.975 56.3187C51.8473 56.5999 51.6942 56.83 51.4899 57.0601C51.2857 57.2901 51.0304 57.4435 50.7751 57.5714C50.4943 57.6992 50.2135 57.7503 49.8817 57.7503C49.6009 57.7503 49.3456 57.7247 49.0648 57.6481C48.784 57.5714 48.5287 57.4435 48.2989 57.2646C48.0692 57.0856 47.8905 56.83 47.7373 56.5488C47.5842 56.242 47.5076 55.8841 47.5076 55.4239V49.902C47.5076 49.5697 47.5586 49.2629 47.6863 48.9817C47.7884 48.7005 47.9671 48.4448 48.1713 48.2403C48.3755 48.0358 48.6308 47.8824 48.9116 47.7546C49.1924 47.6268 49.5243 47.5756 49.8561 47.5756C50.5199 47.5756 51.0815 47.8057 51.4899 48.2403C51.6942 48.4448 51.8473 48.7005 51.975 49.0072C52.1026 49.314 52.1537 49.6208 52.1537 49.9787V50.5411H50.7241V50.0554C50.7241 49.7742 50.6475 49.5185 50.4943 49.314C50.3412 49.1095 50.1114 49.0072 49.8561 49.0072C49.4987 49.0072 49.269 49.1095 49.1414 49.3396C49.0137 49.5697 48.9627 49.8509 48.9627 50.1832V55.2961C48.9627 55.5773 49.0137 55.833 49.1414 56.0375C49.269 56.242 49.4987 56.3443 49.8306 56.3443C49.9327 56.3443 50.0348 56.3187 50.1369 56.2931C50.2391 56.2676 50.3412 56.2164 50.4433 56.1397C50.5199 56.0631 50.5964 55.9608 50.6475 55.833C50.6986 55.7051 50.7241 55.5262 50.7241 55.3472V54.8615H52.1537V54.836Z" fill="#0079C2"/>
<path d="M59.2249 48.9561V51.8705C59.2249 52.0239 59.2249 52.2795 59.1994 52.6374C59.1994 52.9953 59.1738 53.4044 59.1228 53.8134C59.0972 54.248 59.0207 54.6826 58.9441 55.0916C58.8675 55.5007 58.7654 55.8586 58.6377 56.1398C58.408 56.6255 58.1272 56.9834 57.7698 57.2646C57.4124 57.5458 57.004 57.6737 56.4934 57.6737H56.4168V56.242C56.6976 56.2165 56.9274 56.1398 57.0805 55.9864C57.2337 55.833 57.3613 55.6541 57.4635 55.424C57.54 55.2195 57.6166 54.9894 57.6677 54.7082C57.7187 54.427 57.7698 54.1202 57.7953 53.8134C57.8208 53.5066 57.8464 53.1743 57.8464 52.8164C57.8464 52.484 57.8719 52.1517 57.8719 51.8449V47.6523H62.033V57.6737H60.6034V48.9306H59.2249V48.9561Z" fill="#0079C2"/>
<path d="M67.496 56.3442C67.6236 56.3442 67.7768 56.3187 67.9555 56.2931C68.1342 56.2676 68.2618 56.2164 68.3384 56.1142C68.415 56.0375 68.4915 55.9097 68.5937 55.7563C68.6702 55.6029 68.7724 55.3728 68.8489 55.066L68.9766 54.5292L66.8067 47.7034H68.3129L69.6658 52.4073H69.6914L70.738 47.7034H72.2442L70.1764 55.3217C70.0487 55.7818 69.8956 56.1909 69.7424 56.5488C69.5892 56.9067 69.385 57.1879 69.1042 57.418C68.8745 57.5969 68.6447 57.7247 68.3894 57.7503C68.1342 57.8014 67.8789 57.8014 67.5725 57.8014H67.3683V56.3698H67.496V56.3442Z" fill="#0079C2"/>
<path d="M79.877 47.6779H81.3066V51.9727H81.715C81.8937 51.9727 82.0214 51.9471 82.1235 51.896C82.2256 51.8449 82.3022 51.7937 82.3532 51.6915C82.4043 51.6148 82.4553 51.5125 82.4809 51.4103C82.5064 51.308 82.5319 51.1802 82.5575 51.0524L82.7106 49.8508C82.7106 49.8253 82.7362 49.7486 82.7362 49.6208C82.7617 49.4929 82.7872 49.3651 82.8127 49.2373C82.8638 49.0839 82.9148 48.9305 82.9659 48.7771C83.0425 48.6237 83.1191 48.4704 83.2212 48.3425C83.4254 48.0869 83.6296 47.9335 83.8849 47.8312C84.1147 47.729 84.3955 47.7034 84.7273 47.7034H84.7529V49.0583C84.6507 49.0583 84.5486 49.0839 84.4721 49.1095C84.3955 49.135 84.2934 49.2117 84.2168 49.2884C84.1402 49.3651 84.0891 49.4674 84.0636 49.5952C84.0381 49.723 84.0126 49.8508 84.0126 50.0042L83.8849 51.1802C83.8849 51.308 83.8594 51.4103 83.8339 51.5381C83.8083 51.6404 83.8083 51.7426 83.7828 51.8449C83.7573 51.9471 83.7317 52.0238 83.7062 52.075C83.6041 52.3306 83.4509 52.5351 83.2978 52.6629L84.6252 57.7503H83.1701L82.0724 53.3021H81.3321V57.7503H79.9025V53.3021H79.1367L78.039 57.7503H76.5839L77.9114 52.6629C77.7327 52.5351 77.605 52.3562 77.4774 52.075C77.4519 52.0238 77.4263 51.9471 77.4008 51.8449C77.3753 51.7426 77.3753 51.6404 77.3498 51.5381C77.3242 51.4358 77.3242 51.308 77.2987 51.1802L77.1711 50.0042C77.1455 49.8508 77.12 49.723 77.12 49.5952C77.0945 49.4674 77.0434 49.3651 76.9668 49.2884C76.8902 49.2117 76.8137 49.135 76.7116 49.1095C76.635 49.0839 76.5329 49.0583 76.4307 49.0583H76.4052V47.7034H76.4307C76.7626 47.7034 77.0434 47.7546 77.2732 47.8312C77.5029 47.9335 77.7327 48.0869 77.9369 48.3425C78.039 48.4704 78.1411 48.6237 78.1922 48.7771C78.2688 48.9305 78.3198 49.0839 78.3453 49.2373C78.3964 49.3907 78.4219 49.5185 78.4219 49.6208C78.4475 49.7486 78.4474 49.8253 78.4474 49.8508L78.5751 51.0524C78.6006 51.1802 78.6262 51.308 78.6517 51.4103C78.6772 51.5125 78.7283 51.6148 78.7793 51.6915C78.8304 51.7682 78.907 51.8449 79.0091 51.896C79.1112 51.9471 79.2388 51.9727 79.4175 51.9727H79.8515V47.6779H79.877Z" fill="#0079C2"/>
<path d="M89.5266 47.6779H93.6366V49.0328H90.9817V51.7938H91.5433C92.0284 51.7938 92.4623 51.8704 92.7942 51.9983C93.1261 52.1261 93.4069 52.305 93.6111 52.5607C93.8153 52.8163 93.9685 53.0975 94.0195 53.4043C94.0706 53.7111 94.0961 54.0434 94.1216 54.4013V54.9638C94.1216 55.8329 93.9174 56.5232 93.4834 56.9834C93.0495 57.4435 92.3857 57.6992 91.4412 57.6992H89.5777V47.6779H89.5266ZM90.9562 53.0464V56.242H91.4923C91.7731 56.242 92.0028 56.1909 92.1815 56.1142C92.3347 56.0375 92.4623 55.9096 92.5644 55.7563C92.641 55.6029 92.6921 55.4239 92.7176 55.2194C92.7431 55.0149 92.7431 54.7848 92.7431 54.5547C92.7431 54.2991 92.7176 54.069 92.6921 53.89C92.6665 53.7111 92.59 53.5321 92.5134 53.4299C92.4368 53.3276 92.3092 53.2254 92.156 53.1487C92.0028 53.072 91.7986 53.0464 91.5433 53.0464H90.9562Z" fill="#0079C2"/>
<path d="M98.4869 57.6992L100.708 47.6779H101.908L104.129 57.6992H102.699L102.265 55.5517H100.325L99.891 57.6992H98.4869ZM102.035 54.1968L101.321 50.5667H101.295L100.58 54.1968H102.035Z" fill="#0079C2"/>
</g>
<defs>
<clipPath id="clip0_5510_3643">
<rect width="110" height="60" fill="white"/>
</clipPath>
</defs>
</svg>
