<svg width="18" height="18" viewBox="0 0 18 18" fill="none" xmlns="http://www.w3.org/2000/svg">
<path d="M16.9895 15.8831L11.7723 10.6659C12.5819 9.61925 13.0199 8.33956 13.0199 6.99358C13.0199 5.38242 12.3911 3.87171 11.254 2.73264C10.117 1.59358 8.60225 0.966797 6.99309 0.966797C5.38394 0.966797 3.86921 1.59559 2.73216 2.73264C1.59309 3.8697 0.966309 5.38242 0.966309 6.99358C0.966309 8.60273 1.5951 10.1175 2.73216 11.2545C3.86921 12.3936 5.38193 13.0204 6.99309 13.0204C8.33908 13.0204 9.61676 12.5824 10.6634 11.7748L15.8806 16.99C15.8959 17.0053 15.9141 17.0175 15.934 17.0257C15.954 17.034 15.9755 17.0383 15.9971 17.0383C16.0188 17.0383 16.0402 17.034 16.0602 17.0257C16.0802 17.0175 16.0983 17.0053 16.1136 16.99L16.9895 16.1161C17.0048 16.1008 17.017 16.0827 17.0253 16.0627C17.0335 16.0427 17.0378 16.0212 17.0378 15.9996C17.0378 15.978 17.0335 15.9565 17.0253 15.9365C17.017 15.9166 17.0048 15.8984 16.9895 15.8831ZM10.1752 10.1757C9.32345 11.0255 8.19443 11.4936 6.99309 11.4936C5.79176 11.4936 4.66274 11.0255 3.81095 10.1757C2.96117 9.32394 2.49309 8.19492 2.49309 6.99358C2.49309 5.79224 2.96117 4.66122 3.81095 3.81144C4.66274 2.96166 5.79176 2.49358 6.99309 2.49358C8.19443 2.49358 9.32546 2.95965 10.1752 3.81144C11.025 4.66323 11.4931 5.79224 11.4931 6.99358C11.4931 8.19492 11.025 9.32595 10.1752 10.1757Z" fill="black" fill-opacity="0.45"/>
</svg>
